<mxfile host="app.diagrams.net" modified="2022-06-02T13:29:35.660Z" agent="5.0 (Windows NT 10.0; Win64; x64) AppleWebKit/537.36 (KHTML, like Gecko) Chrome/102.0.5005.63 Safari/537.36" etag="_10W0nKNAF7AXd7GDQeo" version="18.2.0" type="github">
  <diagram id="MRSxPUHzeAMK_DiNqdBO" name="Page-1">
    <mxGraphModel dx="2035" dy="662" grid="1" gridSize="10" guides="1" tooltips="1" connect="1" arrows="1" fold="1" page="1" pageScale="1" pageWidth="850" pageHeight="1100" math="0" shadow="0">
      <root>
        <mxCell id="0" />
        <mxCell id="1" parent="0" />
        <mxCell id="t5XcCgjgQxSOq0i3EV5y-21" style="edgeStyle=orthogonalEdgeStyle;rounded=0;orthogonalLoop=1;jettySize=auto;html=1;exitX=0.5;exitY=0;exitDx=0;exitDy=0;entryX=0.5;entryY=1;entryDx=0;entryDy=0;strokeColor=none;" edge="1" parent="1" target="t5XcCgjgQxSOq0i3EV5y-8">
          <mxGeometry relative="1" as="geometry">
            <mxPoint x="380" y="199.9999999999999" as="sourcePoint" />
          </mxGeometry>
        </mxCell>
        <mxCell id="t5XcCgjgQxSOq0i3EV5y-22" style="edgeStyle=orthogonalEdgeStyle;rounded=0;orthogonalLoop=1;jettySize=auto;html=1;exitX=0.5;exitY=0;exitDx=0;exitDy=0;entryX=0.5;entryY=1;entryDx=0;entryDy=0;strokeColor=default;endArrow=none;endFill=0;" edge="1" parent="1" source="t5XcCgjgQxSOq0i3EV5y-46" target="t5XcCgjgQxSOq0i3EV5y-8">
          <mxGeometry relative="1" as="geometry">
            <mxPoint x="380" y="199.9999999999999" as="sourcePoint" />
          </mxGeometry>
        </mxCell>
        <mxCell id="t5XcCgjgQxSOq0i3EV5y-23" style="edgeStyle=orthogonalEdgeStyle;rounded=0;orthogonalLoop=1;jettySize=auto;html=1;exitX=0.5;exitY=0;exitDx=0;exitDy=0;entryX=0.5;entryY=1;entryDx=0;entryDy=0;strokeColor=default;endArrow=none;endFill=0;" edge="1" parent="1" target="t5XcCgjgQxSOq0i3EV5y-6">
          <mxGeometry relative="1" as="geometry">
            <mxPoint x="380" y="199.9999999999999" as="sourcePoint" />
          </mxGeometry>
        </mxCell>
        <mxCell id="t5XcCgjgQxSOq0i3EV5y-24" style="edgeStyle=orthogonalEdgeStyle;rounded=0;orthogonalLoop=1;jettySize=auto;html=1;exitX=0.5;exitY=0;exitDx=0;exitDy=0;entryX=0.5;entryY=1;entryDx=0;entryDy=0;strokeColor=default;endArrow=none;endFill=0;" edge="1" parent="1" target="t5XcCgjgQxSOq0i3EV5y-5">
          <mxGeometry relative="1" as="geometry">
            <mxPoint x="380" y="199.9999999999999" as="sourcePoint" />
          </mxGeometry>
        </mxCell>
        <mxCell id="t5XcCgjgQxSOq0i3EV5y-26" style="edgeStyle=orthogonalEdgeStyle;rounded=0;orthogonalLoop=1;jettySize=auto;html=1;exitX=0.5;exitY=0;exitDx=0;exitDy=0;strokeColor=default;startArrow=none;startFill=0;endArrow=none;endFill=0;" edge="1" parent="1" source="t5XcCgjgQxSOq0i3EV5y-46" target="t5XcCgjgQxSOq0i3EV5y-9">
          <mxGeometry relative="1" as="geometry">
            <mxPoint x="380" y="199.9999999999999" as="sourcePoint" />
          </mxGeometry>
        </mxCell>
        <mxCell id="t5XcCgjgQxSOq0i3EV5y-27" style="edgeStyle=orthogonalEdgeStyle;rounded=0;orthogonalLoop=1;jettySize=auto;html=1;exitX=0.5;exitY=0;exitDx=0;exitDy=0;entryX=0.5;entryY=1;entryDx=0;entryDy=0;startArrow=none;startFill=0;endArrow=none;endFill=0;strokeColor=default;" edge="1" parent="1" source="t5XcCgjgQxSOq0i3EV5y-46" target="t5XcCgjgQxSOq0i3EV5y-10">
          <mxGeometry relative="1" as="geometry">
            <mxPoint x="380" y="199.9999999999999" as="sourcePoint" />
          </mxGeometry>
        </mxCell>
        <mxCell id="t5XcCgjgQxSOq0i3EV5y-45" style="edgeStyle=orthogonalEdgeStyle;rounded=0;orthogonalLoop=1;jettySize=auto;html=1;entryX=0.5;entryY=0;entryDx=0;entryDy=0;startArrow=none;startFill=0;endArrow=none;endFill=0;strokeColor=default;exitX=0;exitY=0.5;exitDx=0;exitDy=0;" edge="1" parent="1" source="t5XcCgjgQxSOq0i3EV5y-46" target="t5XcCgjgQxSOq0i3EV5y-34">
          <mxGeometry relative="1" as="geometry">
            <mxPoint x="220" y="240" as="sourcePoint" />
          </mxGeometry>
        </mxCell>
        <mxCell id="t5XcCgjgQxSOq0i3EV5y-5" value="&lt;u&gt;Email&lt;/u&gt;" style="ellipse;whiteSpace=wrap;html=1;" vertex="1" parent="1">
          <mxGeometry x="160" y="120" width="80" height="40" as="geometry" />
        </mxCell>
        <mxCell id="t5XcCgjgQxSOq0i3EV5y-6" value="Password" style="ellipse;whiteSpace=wrap;html=1;" vertex="1" parent="1">
          <mxGeometry x="250" y="120" width="80" height="40" as="geometry" />
        </mxCell>
        <mxCell id="t5XcCgjgQxSOq0i3EV5y-28" style="edgeStyle=orthogonalEdgeStyle;rounded=0;orthogonalLoop=1;jettySize=auto;html=1;exitX=0.5;exitY=0;exitDx=0;exitDy=0;entryX=0.436;entryY=1.074;entryDx=0;entryDy=0;entryPerimeter=0;startArrow=none;startFill=0;endArrow=none;endFill=0;strokeColor=default;" edge="1" parent="1" source="t5XcCgjgQxSOq0i3EV5y-8" target="t5XcCgjgQxSOq0i3EV5y-11">
          <mxGeometry relative="1" as="geometry" />
        </mxCell>
        <mxCell id="t5XcCgjgQxSOq0i3EV5y-29" style="edgeStyle=orthogonalEdgeStyle;rounded=0;orthogonalLoop=1;jettySize=auto;html=1;exitX=0.5;exitY=0;exitDx=0;exitDy=0;entryX=0.543;entryY=0.99;entryDx=0;entryDy=0;entryPerimeter=0;startArrow=none;startFill=0;endArrow=none;endFill=0;strokeColor=default;" edge="1" parent="1" source="t5XcCgjgQxSOq0i3EV5y-8" target="t5XcCgjgQxSOq0i3EV5y-12">
          <mxGeometry relative="1" as="geometry" />
        </mxCell>
        <mxCell id="t5XcCgjgQxSOq0i3EV5y-8" value="Name" style="ellipse;whiteSpace=wrap;html=1;" vertex="1" parent="1">
          <mxGeometry x="340" y="120" width="80" height="40" as="geometry" />
        </mxCell>
        <mxCell id="t5XcCgjgQxSOq0i3EV5y-9" value="&lt;u&gt;Nickname&lt;/u&gt;" style="ellipse;whiteSpace=wrap;html=1;" vertex="1" parent="1">
          <mxGeometry x="430" y="120" width="80" height="40" as="geometry" />
        </mxCell>
        <mxCell id="t5XcCgjgQxSOq0i3EV5y-30" style="edgeStyle=orthogonalEdgeStyle;rounded=0;orthogonalLoop=1;jettySize=auto;html=1;exitX=0.5;exitY=0;exitDx=0;exitDy=0;entryX=0.5;entryY=1;entryDx=0;entryDy=0;startArrow=none;startFill=0;endArrow=none;endFill=0;strokeColor=default;" edge="1" parent="1" source="t5XcCgjgQxSOq0i3EV5y-10" target="t5XcCgjgQxSOq0i3EV5y-13">
          <mxGeometry relative="1" as="geometry" />
        </mxCell>
        <mxCell id="t5XcCgjgQxSOq0i3EV5y-31" style="edgeStyle=orthogonalEdgeStyle;rounded=0;orthogonalLoop=1;jettySize=auto;html=1;exitX=0.5;exitY=0;exitDx=0;exitDy=0;entryX=0.5;entryY=1;entryDx=0;entryDy=0;startArrow=none;startFill=0;endArrow=none;endFill=0;strokeColor=default;" edge="1" parent="1" source="t5XcCgjgQxSOq0i3EV5y-10" target="t5XcCgjgQxSOq0i3EV5y-14">
          <mxGeometry relative="1" as="geometry" />
        </mxCell>
        <mxCell id="t5XcCgjgQxSOq0i3EV5y-32" style="edgeStyle=orthogonalEdgeStyle;rounded=0;orthogonalLoop=1;jettySize=auto;html=1;exitX=0.5;exitY=0;exitDx=0;exitDy=0;startArrow=none;startFill=0;endArrow=none;endFill=0;strokeColor=default;" edge="1" parent="1" source="t5XcCgjgQxSOq0i3EV5y-10" target="t5XcCgjgQxSOq0i3EV5y-15">
          <mxGeometry relative="1" as="geometry" />
        </mxCell>
        <mxCell id="t5XcCgjgQxSOq0i3EV5y-33" style="edgeStyle=orthogonalEdgeStyle;rounded=0;orthogonalLoop=1;jettySize=auto;html=1;exitX=0.5;exitY=0;exitDx=0;exitDy=0;entryX=0.5;entryY=1;entryDx=0;entryDy=0;startArrow=none;startFill=0;endArrow=none;endFill=0;strokeColor=default;" edge="1" parent="1" source="t5XcCgjgQxSOq0i3EV5y-10" target="t5XcCgjgQxSOq0i3EV5y-16">
          <mxGeometry relative="1" as="geometry" />
        </mxCell>
        <mxCell id="t5XcCgjgQxSOq0i3EV5y-10" value="Postal Code" style="ellipse;whiteSpace=wrap;html=1;" vertex="1" parent="1">
          <mxGeometry x="520" y="120" width="80" height="40" as="geometry" />
        </mxCell>
        <mxCell id="t5XcCgjgQxSOq0i3EV5y-11" value="First Name" style="ellipse;whiteSpace=wrap;html=1;" vertex="1" parent="1">
          <mxGeometry x="260" y="40" width="80" height="40" as="geometry" />
        </mxCell>
        <mxCell id="t5XcCgjgQxSOq0i3EV5y-12" value="Last Name" style="ellipse;whiteSpace=wrap;html=1;" vertex="1" parent="1">
          <mxGeometry x="350" y="40" width="80" height="40" as="geometry" />
        </mxCell>
        <mxCell id="t5XcCgjgQxSOq0i3EV5y-13" value="City" style="ellipse;whiteSpace=wrap;html=1;" vertex="1" parent="1">
          <mxGeometry x="440" y="40" width="80" height="40" as="geometry" />
        </mxCell>
        <mxCell id="t5XcCgjgQxSOq0i3EV5y-14" value="State" style="ellipse;whiteSpace=wrap;html=1;" vertex="1" parent="1">
          <mxGeometry x="530" y="40" width="80" height="40" as="geometry" />
        </mxCell>
        <mxCell id="t5XcCgjgQxSOq0i3EV5y-15" value="Longitude" style="ellipse;whiteSpace=wrap;html=1;" vertex="1" parent="1">
          <mxGeometry x="620" y="40" width="80" height="40" as="geometry" />
        </mxCell>
        <mxCell id="t5XcCgjgQxSOq0i3EV5y-16" value="Latitude" style="ellipse;whiteSpace=wrap;html=1;" vertex="1" parent="1">
          <mxGeometry x="710" y="40" width="80" height="40" as="geometry" />
        </mxCell>
        <mxCell id="t5XcCgjgQxSOq0i3EV5y-40" style="edgeStyle=orthogonalEdgeStyle;rounded=0;orthogonalLoop=1;jettySize=auto;html=1;exitX=0.5;exitY=1;exitDx=0;exitDy=0;startArrow=none;startFill=0;endArrow=none;endFill=0;strokeColor=default;entryX=0.5;entryY=0;entryDx=0;entryDy=0;" edge="1" parent="1" source="t5XcCgjgQxSOq0i3EV5y-34" target="t5XcCgjgQxSOq0i3EV5y-37">
          <mxGeometry relative="1" as="geometry">
            <mxPoint x="230" y="360" as="targetPoint" />
          </mxGeometry>
        </mxCell>
        <mxCell id="t5XcCgjgQxSOq0i3EV5y-41" style="edgeStyle=orthogonalEdgeStyle;rounded=0;orthogonalLoop=1;jettySize=auto;html=1;exitX=0.5;exitY=1;exitDx=0;exitDy=0;startArrow=none;startFill=0;endArrow=none;endFill=0;strokeColor=default;" edge="1" parent="1" source="t5XcCgjgQxSOq0i3EV5y-34" target="t5XcCgjgQxSOq0i3EV5y-36">
          <mxGeometry relative="1" as="geometry" />
        </mxCell>
        <mxCell id="t5XcCgjgQxSOq0i3EV5y-42" style="edgeStyle=orthogonalEdgeStyle;rounded=0;orthogonalLoop=1;jettySize=auto;html=1;exitX=0.5;exitY=1;exitDx=0;exitDy=0;startArrow=none;startFill=0;endArrow=none;endFill=0;strokeColor=default;" edge="1" parent="1" source="t5XcCgjgQxSOq0i3EV5y-34" target="t5XcCgjgQxSOq0i3EV5y-35">
          <mxGeometry relative="1" as="geometry" />
        </mxCell>
        <mxCell id="t5XcCgjgQxSOq0i3EV5y-43" style="edgeStyle=orthogonalEdgeStyle;rounded=0;orthogonalLoop=1;jettySize=auto;html=1;exitX=0.5;exitY=1;exitDx=0;exitDy=0;entryX=0.5;entryY=0;entryDx=0;entryDy=0;startArrow=none;startFill=0;endArrow=none;endFill=0;strokeColor=default;" edge="1" parent="1" source="t5XcCgjgQxSOq0i3EV5y-34" target="t5XcCgjgQxSOq0i3EV5y-38">
          <mxGeometry relative="1" as="geometry" />
        </mxCell>
        <mxCell id="t5XcCgjgQxSOq0i3EV5y-44" style="edgeStyle=orthogonalEdgeStyle;rounded=0;orthogonalLoop=1;jettySize=auto;html=1;exitX=0.5;exitY=1;exitDx=0;exitDy=0;entryX=0.5;entryY=0;entryDx=0;entryDy=0;startArrow=none;startFill=0;endArrow=none;endFill=0;strokeColor=default;" edge="1" parent="1" source="t5XcCgjgQxSOq0i3EV5y-34" target="t5XcCgjgQxSOq0i3EV5y-39">
          <mxGeometry relative="1" as="geometry" />
        </mxCell>
        <mxCell id="t5XcCgjgQxSOq0i3EV5y-34" value="Item" style="rounded=0;whiteSpace=wrap;html=1;" vertex="1" parent="1">
          <mxGeometry x="80" y="280" width="80" height="40" as="geometry" />
        </mxCell>
        <mxCell id="t5XcCgjgQxSOq0i3EV5y-35" value="&lt;u&gt;Item Number&lt;/u&gt;" style="ellipse;whiteSpace=wrap;html=1;" vertex="1" parent="1">
          <mxGeometry x="-101" y="360" width="80" height="40" as="geometry" />
        </mxCell>
        <mxCell id="t5XcCgjgQxSOq0i3EV5y-36" value="Name / Title" style="ellipse;whiteSpace=wrap;html=1;" vertex="1" parent="1">
          <mxGeometry x="-11" y="360" width="80" height="40" as="geometry" />
        </mxCell>
        <mxCell id="t5XcCgjgQxSOq0i3EV5y-50" style="edgeStyle=orthogonalEdgeStyle;rounded=0;orthogonalLoop=1;jettySize=auto;html=1;exitX=0.5;exitY=1;exitDx=0;exitDy=0;entryX=0.5;entryY=0;entryDx=0;entryDy=0;startArrow=none;startFill=0;endArrow=none;endFill=0;strokeColor=default;" edge="1" parent="1" source="t5XcCgjgQxSOq0i3EV5y-37" target="t5XcCgjgQxSOq0i3EV5y-49">
          <mxGeometry relative="1" as="geometry" />
        </mxCell>
        <mxCell id="t5XcCgjgQxSOq0i3EV5y-37" value="Game Type" style="ellipse;whiteSpace=wrap;html=1;" vertex="1" parent="1">
          <mxGeometry x="80" y="360" width="80" height="40" as="geometry" />
        </mxCell>
        <mxCell id="t5XcCgjgQxSOq0i3EV5y-38" value="Condition" style="ellipse;whiteSpace=wrap;html=1;" vertex="1" parent="1">
          <mxGeometry x="170" y="360" width="80" height="40" as="geometry" />
        </mxCell>
        <mxCell id="t5XcCgjgQxSOq0i3EV5y-39" value="Description" style="ellipse;whiteSpace=wrap;html=1;" vertex="1" parent="1">
          <mxGeometry x="260" y="360" width="80" height="40" as="geometry" />
        </mxCell>
        <mxCell id="t5XcCgjgQxSOq0i3EV5y-46" value="User" style="whiteSpace=wrap;html=1;align=center;" vertex="1" parent="1">
          <mxGeometry x="340" y="240" width="80" height="40" as="geometry" />
        </mxCell>
        <mxCell id="t5XcCgjgQxSOq0i3EV5y-47" value="" style="edgeStyle=orthogonalEdgeStyle;rounded=0;orthogonalLoop=1;jettySize=auto;html=1;exitX=0.5;exitY=0;exitDx=0;exitDy=0;startArrow=none;startFill=0;endArrow=none;endFill=0;strokeColor=default;" edge="1" parent="1">
          <mxGeometry relative="1" as="geometry">
            <mxPoint x="380" y="199.9999999999999" as="sourcePoint" />
            <mxPoint x="380" y="200" as="targetPoint" />
          </mxGeometry>
        </mxCell>
        <mxCell id="t5XcCgjgQxSOq0i3EV5y-56" style="edgeStyle=orthogonalEdgeStyle;rounded=0;orthogonalLoop=1;jettySize=auto;html=1;exitX=0.5;exitY=1;exitDx=0;exitDy=0;entryX=0.5;entryY=0;entryDx=0;entryDy=0;startArrow=none;startFill=0;endArrow=none;endFill=0;strokeColor=default;" edge="1" parent="1" source="t5XcCgjgQxSOq0i3EV5y-49" target="t5XcCgjgQxSOq0i3EV5y-51">
          <mxGeometry relative="1" as="geometry" />
        </mxCell>
        <mxCell id="t5XcCgjgQxSOq0i3EV5y-57" style="edgeStyle=orthogonalEdgeStyle;rounded=0;orthogonalLoop=1;jettySize=auto;html=1;exitX=0.5;exitY=1;exitDx=0;exitDy=0;entryX=0.5;entryY=0;entryDx=0;entryDy=0;startArrow=none;startFill=0;endArrow=none;endFill=0;strokeColor=default;" edge="1" parent="1" source="t5XcCgjgQxSOq0i3EV5y-49" target="t5XcCgjgQxSOq0i3EV5y-52">
          <mxGeometry relative="1" as="geometry" />
        </mxCell>
        <mxCell id="t5XcCgjgQxSOq0i3EV5y-58" style="edgeStyle=orthogonalEdgeStyle;rounded=0;orthogonalLoop=1;jettySize=auto;html=1;exitX=0.5;exitY=1;exitDx=0;exitDy=0;startArrow=none;startFill=0;endArrow=none;endFill=0;strokeColor=default;" edge="1" parent="1" source="t5XcCgjgQxSOq0i3EV5y-49" target="t5XcCgjgQxSOq0i3EV5y-53">
          <mxGeometry relative="1" as="geometry" />
        </mxCell>
        <mxCell id="t5XcCgjgQxSOq0i3EV5y-59" style="edgeStyle=orthogonalEdgeStyle;rounded=0;orthogonalLoop=1;jettySize=auto;html=1;exitX=0.5;exitY=1;exitDx=0;exitDy=0;startArrow=none;startFill=0;endArrow=none;endFill=0;strokeColor=default;" edge="1" parent="1" source="t5XcCgjgQxSOq0i3EV5y-49" target="t5XcCgjgQxSOq0i3EV5y-54">
          <mxGeometry relative="1" as="geometry" />
        </mxCell>
        <mxCell id="t5XcCgjgQxSOq0i3EV5y-60" style="edgeStyle=orthogonalEdgeStyle;rounded=0;orthogonalLoop=1;jettySize=auto;html=1;exitX=0.5;exitY=1;exitDx=0;exitDy=0;startArrow=none;startFill=0;endArrow=none;endFill=0;strokeColor=default;" edge="1" parent="1" source="t5XcCgjgQxSOq0i3EV5y-49" target="t5XcCgjgQxSOq0i3EV5y-55">
          <mxGeometry relative="1" as="geometry" />
        </mxCell>
        <mxCell id="t5XcCgjgQxSOq0i3EV5y-49" value="d" style="ellipse;whiteSpace=wrap;html=1;" vertex="1" parent="1">
          <mxGeometry x="110" y="419" width="20" height="20" as="geometry" />
        </mxCell>
        <mxCell id="t5XcCgjgQxSOq0i3EV5y-51" value="Board Game" style="ellipse;whiteSpace=wrap;html=1;" vertex="1" parent="1">
          <mxGeometry x="-101" y="480" width="80" height="40" as="geometry" />
        </mxCell>
        <mxCell id="t5XcCgjgQxSOq0i3EV5y-62" style="edgeStyle=orthogonalEdgeStyle;rounded=0;orthogonalLoop=1;jettySize=auto;html=1;exitX=0.5;exitY=1;exitDx=0;exitDy=0;startArrow=none;startFill=0;endArrow=none;endFill=0;strokeColor=default;" edge="1" parent="1" source="t5XcCgjgQxSOq0i3EV5y-52" target="t5XcCgjgQxSOq0i3EV5y-61">
          <mxGeometry relative="1" as="geometry" />
        </mxCell>
        <mxCell id="t5XcCgjgQxSOq0i3EV5y-52" value="Playing Card Game" style="ellipse;whiteSpace=wrap;html=1;" vertex="1" parent="1">
          <mxGeometry x="-11" y="480" width="80" height="40" as="geometry" />
        </mxCell>
        <mxCell id="t5XcCgjgQxSOq0i3EV5y-53" value="Collectible Card Game" style="ellipse;whiteSpace=wrap;html=1;" vertex="1" parent="1">
          <mxGeometry x="80" y="480" width="80" height="40" as="geometry" />
        </mxCell>
        <mxCell id="t5XcCgjgQxSOq0i3EV5y-54" value="Video Game" style="ellipse;whiteSpace=wrap;html=1;" vertex="1" parent="1">
          <mxGeometry x="170" y="480" width="80" height="40" as="geometry" />
        </mxCell>
        <mxCell id="t5XcCgjgQxSOq0i3EV5y-55" value="Computer Game" style="ellipse;whiteSpace=wrap;html=1;" vertex="1" parent="1">
          <mxGeometry x="260" y="480" width="80" height="40" as="geometry" />
        </mxCell>
        <mxCell id="t5XcCgjgQxSOq0i3EV5y-61" value="# of Cards" style="ellipse;whiteSpace=wrap;html=1;" vertex="1" parent="1">
          <mxGeometry x="-80" y="560" width="80" height="40" as="geometry" />
        </mxCell>
      </root>
    </mxGraphModel>
  </diagram>
</mxfile>
